<svg xmlns="http://www.w3.org/2000/svg" height="197.202" width="261.5"><path d="M13.42 129.892c1.97 0 3.63-1.73 3.63-3.71 0-1.97-1.66-3.7-3.63-3.7-1.98 0-3.63 1.73-3.63 3.7 0 1.98 1.65 3.71 3.63 3.71zm-2.45 48.29l1.97 14.52-12.39-1.89-.55 2.6c1.34 1.74 4.11 3.79 7.58 3.79 8.36 0 8.52-11.68 8.52-18.86v-33.85l-12.15 2.6-.24 1.11 7.26 1.58zm38.43-8.68c-3 2.53-7.81 5.29-9.39 5.29-6 0-6.79-5.29-6.79-11.44v-18.86l-11.99 2.53-.24 1.97 7.1 1.81v14.36c0 9.24 3.55 14.05 10.81 14.05 2.29 0 8.68-4.89 11.84-8.21l-1.03 8.21h.95l9.31-2.6.24-1.9-5.68-1.81v-27.78H41.35l-.24 1.58 8.29 3zm14.99 9h18.07l.24-1.34-6.39-1.97v-52.79l-11.13 2.44-.24 1.11 6.24 1.58v47.66l-6.55 1.97zm23.44-16.1c0 10.42 6.55 16.81 16.17 16.81 4.34 0 9.16-1.58 12.08-3.79l-1.5-2.13c-2.77 2.61-6.87 3.55-10.58 3.55-8.44 0-10.41-7.89-10.41-15.31h20.35c.32-.86.48-1.65.48-2.99 0-7.42-5.53-14.13-12.86-14.13-7.42 0-13.73 7.18-13.73 17.99zm5.91-2.76c.16-2.76 1.11-13.26 7.82-13.26 6.47 0 7.18 9.47 7.1 12.24zm38.43 19.57c2.84 0 5.68-.79 7.18-1.97l.24-2.37c-.79.47-2.6 1.18-4.02 1.18-4.34 0-5.29-3.39-5.29-8.04v-17.13l-.55-3.15h8.36l.24-2.61h-8.05l-.4-10.89h-.71l-3.47 9.39-6.07 2.05-.24 2.14h5.76v19.25c0 6.63.32 12.15 7.02 12.15zm33.14-8.21c0 4.58 4.34 7.82 7.42 8.21 2.68 0 8.05-3.55 10.89-5.29 1.42 5.05 6.47 5.76 9.31 5.76 9.15 0 18.07-8.2 18.07-22.96 0-17.99-13.73-31.48-33.77-31.48-19.81 0-34.41 12.94-34.41 37.01 0 18.7 14.29 32.03 34.8 32.03 3.32 0 7.26-.39 10.42-1.1v-2.29c-3.16.71-7.5 1.1-10.5 1.1-19.09 0-31.72-12.86-31.72-30.06 0-21.78 12.79-34.33 31.33-34.33 18.7 0 31.09 13.02 31.09 29.2 0 13.18-8.37 20.6-14.05 20.6-3.55 0-5.36-2.14-5.36-3.95v-14.99c0-10.02-2.76-14.05-10.65-14.05-4.11 0-6.55.79-10.97 3.24l1.34 8.83h1.34l3.24-9.23c10.1 0 10.57 3.24 10.57 11.37-2.76.71-11.76 3.55-14.05 4.49-2.76 1.11-4.34 4.26-4.34 7.89zm9.16 4.74c-1.98-.55-3.32-3.39-3.32-5.84 0-2.29.55-4.5 2.13-5.29l10.42-3.71v10.42c-2.84 1.34-6.47 3.08-9.23 4.42zm52.63 3.47c2.84 0 5.68-.79 7.18-1.97l.24-2.37c-.79.47-2.61 1.18-4.03 1.18-4.34 0-5.29-3.39-5.29-8.04v-17.13l-.55-3.15h8.37l.23-2.61h-8.05l-.39-10.89h-.71l-3.47 9.39-6.08 2.05-.24 2.14h5.77v19.25c0 6.63.31 12.15 7.02 12.15zm10.41-3.24c3.63 1.98 8.13 3.24 11.76 3.24 6 0 12.23-3.47 12.23-9.07 0-9.32-16.25-9.32-16.25-17.05 0-3.15 1.97-6.63 6.78-6.63.63 0 1.34.08 1.82.16l4.57 9.79H260l-.63-9.71c-2.6-1.5-4.58-2.29-7.65-2.29-7.34 0-12.15 4.5-12.15 9.87 0 10.1 16.41 10.41 16.41 17.28 0 3.31-3.16 5.6-6.71 5.6-2.37 0-4.26-.55-6.15-1.34l-3.16-8.84h-1.26z" xmlns:name="main_text" fill="#fff"/><path d="M183.862 61.69c-.674-1.486-1.372-3.022-1.733-4.317-.32-1.15-.577-2.39-.847-3.705-.622-3.024-1.268-6.151-2.802-8.525-2.254-3.488-5.833-5.197-9.62-7.006-3.918-1.871-9.672-2.455-13.008-1.888 2.762-3.866 7.702-13.622 8.948-17.816 2.04-6.868 3.008-15.343 1.018-17.06-1.37-1.182-2.955-.88-5.15-.456-.706.137-1.499.29-2.402.418-1.12.16-2.7.114-4.53.06-3.919-.114-8.795-.253-12.96 1.46-6.082 2.503-11.825 10.526-12.705 15.759a14.017 14.017 0 00-.198 1.986c-3.152-3.35-12.13-12.564-19.18-16.6C101.084-.357 98.717-.081 97.44.067c-.146.017-.273.034-.39.034h-.002c-1.41 0-4.325 1.548-4.613 3.666-.148 1.087.233 1.915.57 2.646.275.596.535 1.16.53 1.866-.005.726-.849 2.385-1.592 3.85-.924 1.819-1.879 3.7-2.088 5.15-.32 2.228.527 4.308 1.808 7.455.362.89.76 1.867 1.179 2.965 1.53 4.006 8.643 12.191 11.556 15.445.047.136.12.236.203.309a.964.964 0 00.024.292c-6.28 1.503-18.687 9.447-23.358 12.438l-1.052.671c-1.386.875-5.605 3.536-4.172 6.192.61 1.131 1.265 1.068 1.944.896.522-.133 1.233-.318 2.805.389 1.301.586 3.088 2.17 4.978 3.845 2.852 2.527 6.086 5.393 9.336 6.502 5.422 1.848 16.074.577 16.526.522l.18-.046c.25-.105 6.132-2.556 8.063-4.304.435-.392.797-.774 1.111-1.142a59.333 59.333 0 00-.417 4.272c-.392 5.957 3.175 22.17 5.711 27.852l.169.376c2.113 4.741 2.287 5.13 4.894 5.181l.462.011c.032 0 .062.003.094.003 2.019 0 3.38-1.86 4.583-3.503.649-.889 1.263-1.726 1.878-2.151.707-.488 1.103-.58 1.606-.699.755-.18 1.611-.38 3.35-1.79 2.584-2.092 7.399-7.026 9.07-12.246 1.563-4.875.564-14.614.503-15.128-.038-.146-.865-3.307-1.948-5.27 2.648.876 7.167 2.238 11.261 2.807 5.458.76 20.94 1.26 22.923-.54 1.417-1.29.175-4.025-1.263-7.192zm-44.95-8.68c-1.19 1.631-3.594 2.46-7.143 2.46-2.888 0-5.458-.556-5.566-.58l-1.481-.325 1.442-.47c.035-.011 3.54-1.18 4.42-3.581.396-1.08.198-2.274-.589-3.552-.83-1.348-1.854-2.033-3.042-2.033-2.393 0-4.75 2.676-4.773 2.702l-.903 1.035.181-1.36c.036-.273.942-6.706 5.499-9.157 1.31-.705 2.788-1.063 4.392-1.063 3.421 0 6.921 1.699 8.323 4.04 1.775 2.965 2.228 7.79-.76 11.884z" xmlns:name="symbol_mainfill" fill="#fff"/></svg>